#!OML:ASF F:\VICON\USERDATA\INSTALL\rory3\rory3.ASF
:FULLY-SPECIFIED
:DEGREES
26
root 0.39376967840632393 18.072813853198944 -7.465960668294061 -1.2195738793971393 -3.0588993677575553 -0.32658350202959685
lfemur -18.478931464226132 -1.0364707638083788 -24.140303852704015
ltibia 38.68036782055961
lfoot 2.0251748535717855 -5.207585066297666
ltoes -1.1830201722722915
rfemur -7.624652395888361 0.06844494212310304 24.006635142407664
rtibia 89.45044632796981
rfoot 28.378713325025608 -2.583586942871051
rtoes 18.924947552863536
lowerback 11.908345821271494 1.840175491510492 0.4711290958016622
upperback -0.6283621107019524 2.5994332381653726 -0.3097740117039989
thorax -7.40421777682742 1.2574307743739377 -0.8089383768139875
lowerneck -17.506048533950647 -3.857199925133396 -1.7418545679431658
upperneck 17.88512699538458 -5.186215689313651 1.4717219815356004
head 8.69891981584978 -2.410443290991161 0.06524572462540981
lclavicle -1.6748180914277655e-15 -3.5916265760526585e-15
lhumerus -52.3170804387437 4.454675965889172 86.3669994285078
lradius 57.315942859308976
lwrist 12.857864397881704
lhand -27.44414040863326 12.98344140950182
lfingers 7.125019999999999
lthumb -0.8328849738042932 42.71763079994239
rclavicle -1.6832334764829192e-15 -3.597558393019295e-15
rhumerus -35.58834979827219 -4.1409929259739116 -90.5050998843788
rradius 73.42148492601709
rwrist -6.197032813288008
rhand -18.166307758121945 29.739729528234633
rfingers 7.125019999999999
rthumb 7.969016446315884 1.103934118387304
27
root 0.41974951353253853 18.19854786148526 -6.257089419987201 -1.9613733096027455 -2.978478025684386 0.5637423354718138
lfemur -13.644275288989798 -1.2989429106175976 -25.696108485039268
ltibia 38.708797432162804
lfoot -0.022582869726871735 -3.6254674945434315
ltoes 0.2073823649772848
rfemur -16.526204199308996 -2.1515531697028734 22.75404244133858
rtibia 98.84663494182402
rfoot 17.656542324311562 -7.751286238369865
rtoes 16.765634745585317
lowerback 12.618307313279391 1.3555673532922698 -0.7707942482332906
upperback -0.055249291761599595 1.8375883627628562 -0.4255304106627671
thorax -7.423389028296415 0.9178483360468459 -0.2548548213319264
lowerneck -17.54833444658624 -3.262507255691938 -1.7200749899303038
upperneck 17.85358636152324 -4.29259610241185 1.1828002882936994
head 8.640796318605599 -1.9961720728098966 0.0816324088151544
lclavicle -1.6747093365359052e-15 -3.591552682117725e-15
lhumerus -49.41239115981577 2.5327502175531498 87.75352668698987
lradius 58.34879691322313
lwrist 13.916454687685594
lhand -28.439907258740686 12.339884116207267
lfingers 7.125019999999999
lthumb -1.8057541205516625 42.340319255140265
rclavicle -1.680771635397167e-15 -3.595817619488837e-15
rhumerus -36.19634592041999 -5.218392093181101 -90.35285953910804
rradius 70.66176982854036
rwrist -4.455372634373579
rhand -17.910416654660413 29.893923462350937
rfingers 7.125019999999999
rthumb 8.062162322976631 1.1944006209314673
28
root 0.41111403998828244 18.200943644024758 -4.907771227670823 -2.353085226424631 -2.2499780884257348 1.0950072903059218
lfemur -9.338438967792406 -1.6090127461918868 -26.88231189087881
ltibia 38.67767250842631
lfoot -3.0607442820021116 -2.7272617564877697
ltoes 0.6905568516106007
rfemur -23.77488107352556 -4.235593628676538 22.578138844783282
rtibia 100.95948572361321
rfoot 8.792939610572759 -7.627618377722106
rtoes 12.557027695792954
lowerback 12.929571548982256 0.7559338393078017 -1.590605105381607
upperback 0.32584086147626795 0.9409204396840107 -0.4030233296607031
thorax -7.345644274077316 0.5278188101738511 0.3888678651853615
lowerneck -17.059718618007096 -2.9742161114978165 -1.9122344277606158
upperneck 17.922956696047812 -3.804198987784874 1.191214285442756
head 8.557420345488048 -1.7841302155715095 0.21514820746604613
lclavicle -1.6757464548694716e-15 -3.592286927364537e-15
lhumerus -45.65472540397291 0.5836070553388639 88.54598438719044
lradius 59.53126316621179
lwrist 12.053887507434315
lhand -28.891175795283097 12.210597197537696
lfingers 7.125019999999999
lthumb -2.4169536103389384 41.98462851310624
rclavicle -1.681503809661232e-15 -3.596335318306467e-15
rhumerus -37.29572302742357 -6.41732254621129 -89.95292048958329
rradius 68.7798371014535
rwrist -3.011521269776455
rhand -17.897922231633185 29.878673303966053
rfingers 7.125019999999999
rthumb 8.177709204066794 1.2525718625091877
29
root 0.3891707731882339 18.20373624371072 -3.5603598323737167 -2.4620301080425575 -0.6612274534104435 1.18186872231718
lfemur -5.593840656183919 -2.2913048021391322 -27.45813319413123
ltibia 38.34639088265759
lfoot -4.325882728234214 -2.2024358014736576
ltoes -0.7590648941222478
rfemur -29.551522148416474 -5.849299272645894 23.040963585844157
rtibia 96.37229357191868
rfoot 1.0875911058784022 -5.702335734657328
rtoes 11.153975504240938
lowerback 13.309985311247406 0.011029496188341203 -1.9016513095811645
upperback 0.29476565846298747 -0.11436629546977828 -0.09736996773497997
thorax -7.4604538037727615 0.019008496300611966 1.0801146581314507
lowerneck -16.81573930809679 -2.9055722747343347 -2.0891098672983874
upperneck 18.22027062259167 -3.660834058079826 1.2368078957161763
head 8.592296890047463 -1.7143086479958396 0.3077100962572913
lclavicle -1.6752232092808184e-15 -3.591913433981397e-15
lhumerus -41.65493259567678 -1.8916536506866075 89.15064918151607
lradius 60.84242057665284
lwrist 13.017746913020545
lhand -29.34113986202551 11.571134747477613
lfingers 7.125019999999999
lthumb -2.757258739909628 41.49086707118878
rclavicle -1.6798025187068134e-15 -3.595132291313911e-15
rhumerus -38.941721186369136 -6.803572333121909 -89.59901691797717
rradius 68.51879057697494
rwrist -3.6212913759470693
rhand -17.417155875354318 28.559182417240482
rfingers 7.125019999999999
rthumb 8.691219590157198 -0.11522004823519835
30
root 0.3587120131596389 18.04918035838563 -2.3788290632912013 -2.127084431411113 0.7676850905071961 1.4161030272426016
lfemur -2.1695337167994175 -2.3137700288601 -27.886091989405454
ltibia 37.61277930648739
lfoot -5.673042063633625 -1.4692043940014168
ltoes -2.2569108061914216
rfemur -33.785484878047725 -6.405684489684823 23.33148506167032
rtibia 86.09023465479277
rfoot -4.938241604462185 -6.440646799006772
rtoes 2.7334546528162047
lowerback 13.527990070035946 -0.5255523065192047 -2.365027335252417
upperback 0.25679050341330806 -0.8496601609934644 0.10562742518231882
thorax -7.555663841681261 -0.3188980419514742 1.8209901040050935
lowerneck -16.684838927905336 -3.0522996085417096 -2.3190845735931025
upperneck 18.142493113092847 -3.822402397751059 1.6246014049950699
head 8.562252739393402 -1.785494991394239 0.4683068503688499
lclavicle -1.6767109027482589e-15 -3.592961966536421e-15
lhumerus -37.46213769087057 -4.662303286035719 89.50012972602269
lradius 62.97335720497294
lwrist 16.604445948949312
lhand -29.696698206988135 11.679237667830936
lfingers 7.125019999999999
lthumb -3.057583894879437 41.59722809121507
rclavicle -1.6812335597933934e-15 -3.5961442397107146e-15
rhumerus -40.576348502749326 -6.519276293860562 -89.58512645729822
rradius 69.20690913051175
rwrist -5.004502787415636
rhand -17.36554844045995 29.18589111101043
rfingers 7.125019999999999
rthumb 8.481172180221499 0.0417945889607661
31
root 0.32289887083445723 17.893768757456364 -1.658240807522338 -1.5357578140156185 2.1919517173089513 1.5433111944636346
lfemur 1.6883914460012743 -2.098662362573669 -28.113625273499885
ltibia 35.26285446102551
lfoot -6.503508834048986 -1.2983164160574372
ltoes -2.4088430081378065
rfemur -36.17271475449901 -6.231629788329595 23.306845997292694
rtibia 69.83788355935954
rfoot -5.67496367570101 -9.461470325718953
rtoes -1.4756412890187356
lowerback 13.557204306735343 -0.9290207774134727 -2.7776272111349476
upperback 0.27016411954118874 -1.427958663823764 0.34902624153071127
thorax -7.471158581430516 -0.5814828740233758 2.424954715329532
lowerneck -16.566803354288805 -3.2285212511605557 -2.46898619548956
upperneck 17.64707497304706 -4.063263471479799 2.0420686763655556
head 8.402689002381264 -1.8866125876294777 0.6162932727238277
lclavicle -1.6770842967871457e-15 -3.593228924532476e-15
lhumerus -33.21189345008493 -7.360999163437801 89.44267335380849
lradius 65.3760363845376
lwrist 18.39600266901842
lhand -30.334540858428582 12.561986821467377
lfingers 7.125019999999999
lthumb -3.769688785869143 42.56037246384117
rclavicle -1.6810622862711e-15 -3.596023113635389e-15
rhumerus -42.10811281958355 -5.959381606578097 -89.58006113310282
rradius 69.86530748797344
rwrist -6.384248310573816
rhand -17.340835042326376 29.645194518189577
rfingers 7.125019999999999
rthumb 8.38389072090327 -0.16028229835941307
32
root 0.27791974620651805 17.870918445451515 -0.7517369829824041 -0.6175714142196336 2.6816989367433566 1.6415828658539335
lfemur 5.9221779276667235 -1.6135481783065373 -28.171919672800296
ltibia 30.438086226245296
lfoot -5.190734891636419 -1.4895530967399369
ltoes -4.270792942457059
rfemur -36.1858467150176 -3.8398037709981048 22.753169855367833
rtibia 48.55002910861647
rfoot -2.142875657220908 -12.964544420097045
rtoes -1.8715320278605363
lowerback 12.819740762642363 -1.0392226000587628 -3.2627444472286675
upperback 0.14034362573824866 -1.6348188250472597 0.5288511051057987
thorax -7.1470469734060265 -0.6659115724742259 2.9343353754018384
lowerneck -16.688327531923626 -3.3591279833965757 -2.5223452517397953
upperneck 17.44802108069057 -4.269765292713469 2.4095394542915716
head 8.38123264506161 -1.9503621578486023 0.7345354736151292
lclavicle -1.6763626363721281e-15 -3.592723072833936e-15
lhumerus -29.230239592705214 -8.9903688587963 88.88179824408999
lradius 67.84016217006211
lwrist 20.17584435596093
lhand -31.14336697244736 13.123021966234377
lfingers 7.125019999999999
lthumb -4.742058099418215 42.734729412721435
rclavicle -1.6781084250210613e-15 -3.593934342774153e-15
rhumerus -43.40756825902972 -6.216397138076117 -89.20247876592659
rradius 69.49937038542689
rwrist -6.591518944494846
rhand -17.50203228278829 29.848828934166868
rfingers 7.125019999999999
rthumb 8.143372279367641 -0.09539359565238627
